Simulation
nRows=23
nColumns=15
endheader
time  TH_x TH_y TH_z SC_y  SC_z  SC_x  AC_y  AC_z  AC_x  GH_y  GH_z  GH_yy  EL_x  PS_y
0.0  0.000000  0.000000  0.000000  -32.33279161811956  -0.2902749561480099  2.156476575992518  46.091419403130445  6.742362289870383  -4.10784629405959  0.37333219461029454  3.514259360829741  17.763066597529598  22.72927472692209  0.000000
0.011899999999999999  0.000000  0.000000  0.000000  -32.406455014134295  -0.14318391951510565  2.200342312393626  45.9408407632044  6.907541644190114  -4.13399457896103  -0.7087705969927057  3.63780816266898  18.908894456777734  22.678969403826212  0.000000
0.023799999999999998  0.000000  0.000000  0.000000  -32.41109058730188  -0.009954245441218142  2.232539374553214  45.77402661516761  7.069689512582029  -4.161035131939636  -1.66496132492031  3.7366640560090203  20.042211403605513  22.64674864604307  0.000000
0.035699999999999996  0.000000  0.000000  0.000000  -32.41494149918154  0.10748592423777514  2.246554464326553  45.62446054629159  7.212392909051817  -4.185778674232856  -2.0324776473127706  3.8404551613190177  20.63677996409076  22.61783561074324  0.000000
0.047599999999999996  0.000000  0.000000  0.000000  -32.425454493312785  0.2096987943936795  2.2465275744076663  45.48555211561681  7.333751164372241  -4.201856738509873  -2.0910660486838446  3.955071133065385  20.946695714549104  22.61075531869833  0.000000
0.0595  0.000000  0.000000  0.000000  -32.44520308668966  0.2991746491447064  2.2370637047456516  45.35658083208444  7.427446683899391  -4.202734189601388  -2.008631405226931  4.088082051555097  21.121433261803823  22.61912284801383  0.000000
0.07139999999999999  0.000000  0.000000  0.000000  -32.47051229246906  0.37692089092712844  2.221284297447465  45.242924506289285  7.492501657212896  -4.1941332668469995  -1.8410200082156243  4.2438521765051895  21.197150004228135  22.643949000082134  0.000000
0.0833  0.000000  0.000000  0.000000  -32.500500922641436  0.444931385291403  2.202608039834937  45.14851356822672  7.526337440295676  -4.177174132904628  -1.6609153194772956  4.427331152386527  21.23687547835133  22.6824584508893  0.000000
0.09519999999999999  0.000000  0.000000  0.000000  -32.53444848302959  0.5032836903185807  2.1838714254416085  45.07589044973594  7.529291379585676  -4.154757408884199  -1.502061950506104  4.6404567071689895  21.263457184903757  22.734179256091487  0.000000
0.10709999999999999  0.000000  0.000000  0.000000  -32.5747130576596  0.5518289443602568  2.166107549330922  45.02370563540103  7.502205869672296  -4.124282726515943  -1.4146247009927297  4.886029483454857  21.322562401913526  22.79722025871113  0.000000
0.119  0.000000  0.000000  0.000000  -32.61957241125548  0.5915759889942651  2.1484254450395794  44.991156224304646  7.448641160483294  -4.085881515019324  -1.39951737194937  5.1638404084866485  21.408083382823786  22.87118395890906  0.000000
0.1309  0.000000  0.000000  0.000000  -32.668367181477265  0.6243748024125461  2.1306934580838512  44.97807271548962  7.37122809115718  -4.0391585590940045  -1.463637915530209  5.474924187453649  21.52524691868267  22.955162863783098  0.000000
0.14279999999999998  0.000000  0.000000  0.000000  -32.71926662316455  0.6518296725929886  2.113222747543808  44.984720628543336  7.273405151709872  -3.985723001258945  -1.5923084768215403  5.819269678900147  21.656398017872068  23.04878748966704  0.000000
0.15469999999999998  0.000000  0.000000  0.000000  -32.773246444624355  0.6750294167938938  2.09731323523662  45.00921438324808  7.1577694107433265  -3.9252714332422953  -1.7864924209632984  6.197834736474752  21.802552334080698  23.15110426430059  0.000000
0.1666  0.000000  0.000000  0.000000  -32.829252556599826  0.6948288826823914  2.08368560595667  45.050461193910245  7.027772206636042  -3.858962918397275  -2.0320715230270014  6.610623078436401  21.948623963872393  23.260943677978428  0.000000
0.1785  0.000000  0.000000  0.000000  -32.88795248454003  0.7120172921737973  2.0734338699424733  45.106743365555175  6.88631076968621  -3.7871555325563797  -2.3236617161791067  7.058101162238989  22.090637592018656  23.37704784036779  0.000000
0.19039999999999999  0.000000  0.000000  0.000000  -32.94822287595014  0.7272306262160483  2.0670858613126795  45.17666647601512  6.736795351453513  -3.710987255572777  -2.648222614100412  7.540091838334981  22.21628909532005  23.498323275707424  0.000000
0.20229999999999998  0.000000  0.000000  0.000000  -33.01056086917026  0.7410037478061647  2.0655008972024254  45.25843994615705  6.582234734265706  -3.6310403988561455  -2.9987538033003145  8.056579295291273  22.320865488673373  23.623586414904345  0.000000
0.21419999999999997  0.000000  0.000000  0.000000  -33.07387642062974  0.7537340376105915  2.0690142673421947  45.35082113524831  6.425886104536621  -3.548535786963653  -3.3629825784961263  8.607143895129909  22.393879192342794  23.751670217149847  0.000000
0.2261  0.000000  0.000000  0.000000  -33.13871914157453  0.765770910350449  2.0783168199611413  45.45202800601026  6.270597540223743  -3.464123920490977  -3.734139974813307  9.191324951983841  22.43143862741891  23.88137994751742  0.000000
0.238  0.000000  0.000000  0.000000  -33.204022114247564  0.7773925143101574  2.093652403303259  45.56088898691652  6.1192965069496905  -3.37900268207098  -4.103081802272555  9.808403675975246  22.427158056633967  24.011745641525923  0.000000
0.24989999999999998  0.000000  0.000000  0.000000  -33.270208716074976  0.7888019555389254  2.1154865781563323  45.67596345934423  5.974628240094661  -3.2940844402048923  -4.464983862471493  10.45758636416638  22.379753134689693  24.141990589000915  0.000000
0.2618  0.000000  0.000000  0.000000  -33.336357280262824  0.8001186891023693  2.14395369108128  45.796055288603824  5.839063083613521  -3.2104429718917293  -4.812883990004882  11.137745545795621  22.28507909780289  24.27077602989779  0.000000
